<svg class="border shadow-md" viewBox="0 0 1037.2266666666667 583.44" style="width: 1037.23px; height: 583.44px;" xmlns="http://www.w3.org/2000/svg" preserveAspectRatio="none"><rect class="bg" id="bg" x="0" y="0" width="1037.2266666666667" height="583.44" fill="#ffffff"/><g transform="rotate(0 518.6133333333333 291.72)"><path d="M -618.61 -53.35 S -626.00 -129.35&#xA;            0.00 -53.35 43.61 -95.02&#xA;            618.61 -53.35 917.92 -96.35&#xA;            1237.23 -53.35 1314.84 -95.02&#xA;            1855.84 -53.35 h 110 V 783.44 H -618.61 Z" fill="#FFFFFF" id="-1"/><path d="M -618.61 30.00 S -319.31 -42.00&#xA;            0.00 30.00 4.61 -11.67&#xA;            618.61 30.00 917.92 -22.00&#xA;            1237.23 30.00 1536.53 -14.00&#xA;            1855.84 30.00 h 110 V 783.44 H -618.61 Z" fill="#ebf3e0" id="0"/><path d="M -618.61 113.35 S -319.31 65.35&#xA;            0.00 113.35 299.31 71.67&#xA;            618.61 113.35 917.92 71.67&#xA;            1237.23 113.35 1279.84 38.35&#xA;            1855.84 113.35 h 110 V 783.44 H -618.61 Z" fill="#d7e7c1" id="1"/><path d="M -618.61 196.70 S -319.31 155.02&#xA;            0.00 196.70 299.31 155.02&#xA;            618.61 196.70 650.23 147.70&#xA;            1237.23 196.70 1472.84 141.70&#xA;            1855.84 196.70 h 110 V 783.44 H -618.61 Z" fill="#c3dba2" id="2"/><path d="M -618.61 280.05 S -319.31 238.37&#xA;            0.00 280.05 299.31 238.37&#xA;            618.61 280.05 849.23 238.37&#xA;            1237.23 280.05 1456.84 207.05&#xA;            1855.84 280.05 h 110 V 783.44 H -618.61 Z" fill="#afcf83" id="3"/><path id="4" d="M -618.61 363.39 S -319.31 321.72&#xA;            0.00 363.39 299.31 282.39&#xA;            618.61 363.39 917.92 301.39&#xA;            1237.23 363.39 1536.53 308.39&#xA;            1855.84 363.39 h 110 V 783.44 H -618.61 Z" fill="#9bc364"/><path id="5" d="M -618.61 446.74 S -585.00 405.07&#xA;            0.00 446.74 299.31 405.07&#xA;            618.61 446.74 917.92 375.74&#xA;            1237.23 446.74 1536.53 405.07&#xA;            1855.84 446.74 h 110 V 783.44 H -618.61 Z" fill="#87b745"/><path id="6" d="M -618.61 530.09 S -319.31 452.09&#xA;            0.00 530.09 299.31 464.09&#xA;            618.61 530.09 917.92 488.42&#xA;            1237.23 530.09 1536.53 454.09&#xA;            1855.84 530.09 h 110 V 783.44 H -618.61 Z" fill="#73ab26"/></g></svg>